# xmcd
#
# Track frame offsets: 
#        150
#        19130
#        37580
#        52996
#        71976
#        88356
#        107915
#        126288
#        141982
#        158425
#        176530
#        194525
#        215558
#        233868
#        252185
#        270081
#        287349
#        301075
#        318902
#        333960
#
# Disc length: 4746 seconds
#
# Revision: 0
# Processed by: cddbd v1.5.2PL0 Copyright (c) Steve Scherf et al.
# Submitted via: ExactAudioCopy v0.95a3
#
DISCID=15128814
DTITLE=Various Artist - Smooth
DYEAR=1900
DGENRE=R&B
TTITLE0=Lupe Fiasco - Kick Push
TTITLE1=De La Soul - Ring Ring Rig (Ha Ha Hey)
TTITLE2=Kelis - Trick me
TTITLE3=Backstreet Feat Dr Dre - No Dignity
TTITLE4=Joss Stone - Fell In Love With a Boy
TTITLE5=D'Angelo - Brown Sugar
TTITLE6=Corrine Bailey Rae - I'd Like To
TTITLE7=John Legend - Used to Love You
TTITLE8=Lucy Pearl - Don't Mess With My Man
TTITLE9=Outkast - Ms. Jackson
TTITLE10=Toni Braxton - He Wasn't Man Enough
TTITLE11=En Vogue - My Lovin' (You're Never Gonna Get It)
TTITLE12=Arrested Development - People Everyday
TTITLE13=India Arie - Video
TTITLE14=Baby Bash Feat Frankie J - Suga Suga
TTITLE15=Groove Theory - Tell Me
TTITLE16=R. Kelly - Ignition (Remix)
TTITLE17=Donell Jones - U Know What's Up
TTITLE18=Blu Cantrell - Breathe
TTITLE19=The Black Eyed Peas Feat Esthero - Weekends
EXTD=
EXTT0=
EXTT1=
EXTT2=
EXTT3=
EXTT4=
EXTT5=
EXTT6=
EXTT7=
EXTT8=
EXTT9=
EXTT10=
EXTT11=
EXTT12=
EXTT13=
EXTT14=
EXTT15=
EXTT16=
EXTT17=
EXTT18=
EXTT19=
PLAYORDER=
